<svg width="22" height="20" viewBox="0 0 22 20" fill="none" xmlns="http://www.w3.org/2000/svg">
<rect x="4.54993" y="0.703003" width="2.09205" height="2.09206" fill="#F3D448"/>
<rect x="4.54993" y="2.79504" width="2.09205" height="2.09206" fill="#F3D448"/>
<rect x="4.54993" y="4.88708" width="2.09205" height="2.09206" fill="#F3D448"/>
<rect x="2.45776" y="4.88708" width="2.09205" height="2.09206" fill="#F3D448"/>
<rect x="0.365845" y="4.88708" width="2.09205" height="2.09206" fill="#F3D448"/>
<rect x="0.365845" y="6.97913" width="2.09205" height="2.09206" fill="#F3D448"/>
<rect x="4.54993" y="6.97913" width="2.09205" height="2.09206" fill="#F3D448"/>
<rect x="4.54993" y="9.07123" width="2.09205" height="2.09206" fill="#F3D448"/>
<rect x="2.45776" y="9.07123" width="2.09205" height="2.09206" fill="#F3D448"/>
<rect x="6.64185" y="0.703003" width="2.09205" height="2.09206" fill="#F3D448"/>
<rect x="6.64185" y="2.79504" width="2.09205" height="2.09206" fill="#FFEE9A"/>
<rect x="6.64185" y="4.88708" width="2.09205" height="2.09206" fill="#FFEE9A"/>
<rect x="6.64185" y="6.97913" width="2.09205" height="2.09206" fill="#F3D448"/>
<rect x="6.64185" y="9.07123" width="2.09205" height="2.09206" fill="#F3D448"/>
<rect x="6.64185" y="11.1632" width="2.09205" height="2.09206" fill="#F3D448"/>
<rect x="8.73401" y="0.703003" width="2.09205" height="2.09206" fill="#F3D448"/>
<rect x="8.73401" y="2.79504" width="2.09205" height="2.09206" fill="#FFEE9A"/>
<rect x="8.73401" y="4.88708" width="2.09205" height="2.09206" fill="#F3D448"/>
<rect x="8.73401" y="6.97913" width="2.09205" height="2.09206" fill="#F3D448"/>
<rect x="8.73401" y="9.07123" width="2.09205" height="2.09206" fill="#F3D448"/>
<rect x="8.73401" y="11.1632" width="2.09205" height="2.09206" fill="#F3D448"/>
<rect x="8.73401" y="13.2553" width="2.09205" height="2.09206" fill="#F3D448"/>
<rect x="10.826" y="0.703003" width="2.09205" height="2.09206" fill="#F3D448"/>
<rect x="10.826" y="2.79504" width="2.09205" height="2.09206" fill="#F3D448"/>
<rect x="10.826" y="4.88708" width="2.09205" height="2.09206" fill="#F3D448"/>
<rect x="10.826" y="6.97913" width="2.09205" height="2.09206" fill="#F3D448"/>
<rect x="10.826" y="9.07123" width="2.09205" height="2.09206" fill="#F3D448"/>
<rect x="10.826" y="11.1632" width="2.09205" height="2.09206" fill="#F3D448"/>
<rect x="12.9181" y="0.703003" width="2.09205" height="2.09206" fill="#F3D448"/>
<rect x="15.0101" y="0.703003" width="2.09205" height="2.09206" fill="#D8BB21"/>
<rect x="12.9181" y="2.79504" width="2.09205" height="2.09206" fill="#F3D448"/>
<rect x="15.0101" y="2.79504" width="2.09205" height="2.09206" fill="#D8BB21"/>
<rect x="12.9181" y="4.88708" width="2.09205" height="2.09206" fill="#F3D448"/>
<rect x="15.0101" y="4.88708" width="2.09205" height="2.09206" fill="#D8BB21"/>
<rect x="12.9181" y="6.97913" width="2.09205" height="2.09206" fill="#F3D448"/>
<rect x="15.0101" y="6.97913" width="2.09205" height="2.09206" fill="#D8BB21"/>
<rect x="12.9181" y="9.07123" width="2.09205" height="2.09206" fill="#F3D448"/>
<rect x="15.0101" y="9.07123" width="2.09205" height="2.09206" fill="#D8BB21"/>
<rect x="17.1021" y="9.07123" width="2.09205" height="2.09206" fill="#D8BB21"/>
<rect x="19.1942" y="6.97913" width="2.09205" height="2.09206" fill="#D8BB21"/>
<rect x="17.1021" y="4.88708" width="2.09205" height="2.09206" fill="#D8BB21"/>
<rect x="19.1942" y="4.88708" width="2.09205" height="2.09206" fill="#D8BB21"/>
<rect x="12.9181" y="11.1633" width="2.09205" height="2.09206" fill="#D8BB21"/>
<rect x="10.826" y="13.2553" width="2.09205" height="2.09206" fill="#D8BB21"/>
<rect x="10.826" y="15.3473" width="2.09205" height="2.09206" fill="#D8BB21"/>
<rect x="10.826" y="17.4393" width="2.09205" height="2.09206" fill="#D8BB21"/>
<rect x="12.9181" y="17.4393" width="2.09205" height="2.09206" fill="#D8BB21"/>
<rect x="8.73401" y="15.3473" width="2.09205" height="2.09206" fill="#D8BB21"/>
<rect x="8.73401" y="17.4393" width="2.09205" height="2.09206" fill="#D8BB21"/>
<rect x="6.64185" y="17.4393" width="2.09205" height="2.09206" fill="#D8BB21"/>
</svg>
